<?xml version="1.0" encoding="utf-8"?>
<!-- Generator: Adobe Illustrator 16.0.0, SVG Export Plug-In . SVG Version: 6.00 Build 0)  -->
<!DOCTYPE svg PUBLIC "-//W3C//DTD SVG 1.1//EN" "http://www.w3.org/Graphics/SVG/1.1/DTD/svg11.dtd">
<svg version="1.1" id="Layer_1" xmlns="http://www.w3.org/2000/svg" xmlns:xlink="http://www.w3.org/1999/xlink" x="0px" y="0px"
	 width="249.793px" height="55.09px" viewBox="0 0 249.793 55.09" enable-background="new 0 0 249.793 55.09" xml:space="preserve">
<g>
	<g>
		<path fill="#C92F2D" d="M46.601,55.09h-35.61l3.957-14.506c0,0-11.101,0-14.948-11.76C-3.846,17.065,8.243,4.204,22.311,9.26
			c0,0,10.771-16.155,26.598-5.165c15.827,10.99,3.405,29.452-1.32,32.091c-4.727,2.638-3.296,1.648-3.296,1.648L46.601,55.09z"/>
		<path fill="#C92F2D" d="M57.282,19.674c0,10.865-8.808,19.673-19.673,19.673c-10.867,0-19.674-8.808-19.674-19.673
			C17.935,8.808,26.742,0,37.609,0C48.474,0,57.282,8.808,57.282,19.674z"/>
	</g>
	<g>
		<path fill="#FFFFFF" d="M27.504,50.168c0,0,1.212,0.391,0.727-2.518c-0.484-2.912-2.813-19.689-2.813-19.689
			s2.182-0.826,1.94-4.077c-0.241-3.248-0.728-7.663-0.728-7.663h-0.485l0.243,7.421c0,0-0.291,0.485-0.485-0.533
			c-0.194-1.016-0.728-6.888-0.728-6.888h-0.484l0.242,6.986c0,0-0.195,1.115-0.533-0.051l-0.631-6.935h-0.533
			c0,0,0.437,7.179,0,7.421c0,0-0.437,0.68-0.582-1.649c-0.146-2.329-0.34-5.772-0.34-5.772H21.83c0,0,0.047,8.053,0.582,9.362
			c0.532,1.309,1.39,2.002,2.23,2.424c0,0,0.388,20.174,0.679,21.045C25.612,49.928,26.339,50.898,27.504,50.168z"/>
		<path fill="#FFFFFF" d="M39.082,17.444c-0.276,3.711-2.298,6.587-4.514,6.425c-2.216-0.166-3.788-3.309-3.514-7.02
			c0.276-3.714,2.295-6.59,4.514-6.425C37.784,10.588,39.358,13.732,39.082,17.444z"/>
		<path fill="#FFFFFF" d="M34.825,23.867l-0.532,15.686v4.605c0,0,0.193,3.154-1.844,2.959c-2.037-0.193-1.456-2.862-1.406-3.251
			c0.049-0.384,3.031-20.09,3.031-20.09L34.825,23.867z"/>
		<path fill="#FFFFFF" d="M28.344,48.96c0,1.013-0.677,1.833-1.514,1.833c-0.834,0-1.512-0.82-1.512-1.833
			c0-1.012,0.677-1.833,1.512-1.833C27.667,47.127,28.344,47.948,28.344,48.96z"/>
	</g>
</g>
<path fill="#363736" d="M95.334,33.848c0,0,0.487-9.113-5.467-12.434c-5.954-3.321-13.609-0.81-15.068-0.244
	c-1.458,0.569-3.604,1.542-4.455,3.565c-0.851,2.024,0.729,4.983,3.24,4.618s4.494-2.876,8.1-2.633
	c3.606,0.243,4.698,1.782,4.86,4.739c0,0-6.764-0.122-10.571,1.053c-3.807,1.174-8.587,3.16-8.384,9.722
	c0.203,6.56,8.248,9.313,13.905,7.896c4.837-1.209,5.185-2.894,5.184-3.357c0.066,0.598,0.547,3.201,3.877,3.523
	c3.767,0.364,4.617-3.041,4.778-3.848C95.498,45.637,95.334,33.848,95.334,33.848z M81.197,44.053
	c-3.442,0.525-5.793-1.617-4.375-4.455c1.418-2.837,9.76-2.509,9.76-2.509C86.705,42.273,84.639,43.529,81.197,44.053z"/>
<path fill="#363736" d="M151.189,11.513c0,2.984-2.422,5.405-5.408,5.405s-5.406-2.421-5.406-5.405c0-2.988,2.42-5.408,5.406-5.408
	S151.189,8.525,151.189,11.513z"/>
<path fill="#363736" d="M150.641,24.939c0,0.247-0.018,0.491-0.052,0.729c-0.349,2.339-2.325,4.131-4.716,4.131
	c-2.635,0-4.771-2.176-4.771-4.86c0-0.246,0.021-0.486,0.053-0.721c0.014-0.083,0.025-0.163,0.042-0.246
	c0.439-2.22,2.367-3.895,4.677-3.895C148.506,20.078,150.641,22.255,150.641,24.939z"/>
<path fill="#363736" d="M150.641,45.473c0,2.684-2.135,4.859-4.768,4.859c-2.635,0-4.771-2.176-4.771-4.859s2.137-4.859,4.771-4.859
	C148.506,40.613,150.641,42.789,150.641,45.473z"/>
<polygon fill="#363736" points="141.102,24.575 141.102,45.473 143.291,46.508 150.641,45.473 150.641,24.939 "/>
<path fill="#363736" d="M157.873,48.086c0,0-4.006-3.287-0.36-6.078c0,0,2.118-1.395,4.308-0.303c2.189,1.097,4.739,3.225,8.079,1.4
	c0,0,1.702-1.033,0.79-2.916c0,0-0.79-1.339-4.919-1.885c-4.134-0.547-9.659-3.646-8.993-9.477
	c0.669-5.833,5.527-9.496,13.367-8.829c7.836,0.669,9.6,3.482,8.748,6.155c-0.85,2.674-3.343,3.281-7.412,0.973
	c-4.104-2.328-7.535,1.822-5.287,3.281c2.25,1.457,12.153,1.395,13.609,8.383c1.459,6.987-4.434,11.666-10.023,11.906
	C164.189,50.942,161.941,50.697,157.873,48.086z"/>
<path fill="#363736" d="M185.028,29.739c0,0-4.192-5.833,0.606-9.174c0,0,4.802-3.038,7.961,4.922
	c3.158,7.956,5.225,13.911,5.225,13.911l5.893-15.978c0,0,1.582-4.861,6.743-2.794c5.165,2.063-0.606,11.701-1.761,14.721
	c-1.152,3.019-8.385,20.394-8.385,20.394s-2.428,6.502-8.929,7.656c-6.503,1.154-8.811-1.52-8.567-4.316
	c0.243-2.791,1.82-3.34,4.191-3.521c2.371-0.184,4.012-0.241,5.893-6.014L185.028,29.739z"/>
<path fill="#363736" d="M233.447,19.714c-9.021,0-16.341,6.949-16.341,15.524c0,8.574,7.319,15.521,16.341,15.521
	c9.026,0,16.346-6.946,16.346-15.521C249.793,26.663,242.474,19.714,233.447,19.714z M233.382,42.861
	c-3.888,0-7.042-3.449-7.042-7.711c0-4.259,3.154-7.711,7.042-7.711c3.886,0,7.042,3.452,7.042,7.711
	C240.424,39.412,237.268,42.861,233.382,42.861z"/>
<rect x="130.446" y="31.416" fill="#D12B2C" stroke="#363736" stroke-miterlimit="10" width="0.159" height="0.08"/>
<path fill="#363736" d="M133.289,10.3c0,0,0.201-4.885-4.539-5.173c-4.739-0.288-5.06,4.41-5.059,5.829
	c0,1.417,0.046,12.797,0.046,12.797s-4.132-4.938-10.654-3.842c-6.52,1.098-10.812,5.394-12.022,13.577
	c-1.211,8.182,4.706,14.822,8.311,16.076c3.605,1.254,10.449,2.705,15.025-3.493c0,0,0.124,3.4,3.567,4.086
	c3.441,0.686,5.225-1.745,5.344-4.294C133.428,43.309,133.289,10.3,133.289,10.3z M117.264,43.112
	c-3.935,0.002-7.128-3.431-7.13-7.671c-0.003-4.238,3.187-7.674,7.122-7.677c3.94-0.002,7.134,3.431,7.137,7.669
	C124.395,39.674,121.205,43.11,117.264,43.112z"/>
</svg>
