<?xml version="1.0" encoding="utf-8"?>
<!-- Generator: Adobe Illustrator 16.0.0, SVG Export Plug-In . SVG Version: 6.00 Build 0)  -->
<!DOCTYPE svg PUBLIC "-//W3C//DTD SVG 1.1//EN" "http://www.w3.org/Graphics/SVG/1.1/DTD/svg11.dtd">
<svg version="1.1" id="Layer_1" xmlns="http://www.w3.org/2000/svg" xmlns:xlink="http://www.w3.org/1999/xlink" x="0px" y="0px"
	 width="255.36px" height="66.079px" viewBox="0 0 255.36 66.079" enable-background="new 0 0 255.36 66.079" xml:space="preserve">
<g>
	<g>
		<path fill="#C92F2D" d="M48.807,57.355H12.608l4.022-14.746c0,0-11.285,0-15.195-11.955c-3.909-11.953,8.379-25.027,22.68-19.888
			c0,0,10.95-16.422,27.039-5.25c16.088,11.172,3.461,29.939-1.342,32.621c-4.805,2.682-3.351,1.676-3.351,1.676L48.807,57.355z"/>
		<path fill="#C92F2D" d="M59.665,21.353c0,11.045-8.954,19.999-19.999,19.999c-11.046,0-20-8.953-20-19.999
			c0-11.045,8.953-19.999,20-19.999C50.711,1.354,59.665,10.308,59.665,21.353z"/>
	</g>
	<g>
		<path display="none" fill="#FFFFFF" d="M29.395,52.352c0,0,1.232,0.396,0.738-2.561c-0.493-2.959-2.859-20.014-2.859-20.014
			s2.218-0.84,1.972-4.144c-0.245-3.302-0.74-7.79-0.74-7.79h-0.493l0.247,7.544c0,0-0.296,0.493-0.493-0.542
			c-0.197-1.033-0.74-7.002-0.74-7.002h-0.492l0.246,7.102c0,0-0.198,1.134-0.542-0.052l-0.642-7.05h-0.542c0,0,0.444,7.297,0,7.544
			c0,0-0.444,0.691-0.591-1.676c-0.147-2.368-0.345-5.868-0.345-5.868h-0.493c0,0,0.048,8.186,0.592,9.517
			c0.541,1.33,1.413,2.036,2.268,2.464c0,0,0.395,20.508,0.689,21.393C27.472,52.108,28.21,53.094,29.395,52.352z"/>
		<path fill="#FFFFFF" d="M41.164,19.086c-0.281,3.772-2.336,6.696-4.589,6.532c-2.252-0.168-3.851-3.364-3.572-7.135
			c0.28-3.775,2.333-6.7,4.588-6.531C39.845,12.117,41.444,15.313,41.164,19.086z"/>
		<path fill="#FFFFFF" d="M36.836,25.616l-0.541,15.945v4.682c0,0,0.196,3.207-1.875,3.008c-2.07-0.197-1.479-2.91-1.43-3.305
			c0.05-0.391,3.081-20.422,3.081-20.422L36.836,25.616z"/>
		<path display="none" fill="#FFFFFF" d="M30.249,51.124c0,1.029-0.688,1.863-1.539,1.863c-0.848,0-1.537-0.834-1.537-1.863
			c0-1.028,0.688-1.863,1.537-1.863C29.561,49.26,30.249,50.095,30.249,51.124z"/>
	</g>
	<path fill="#FFFFFF" d="M26.501,17.354c-0.249,0.031-0.419,0.322-0.378,0.65l0.9,7.3c0.041,0.329-0.131,0.619-0.382,0.65
		c-0.251,0.031-0.487-0.209-0.528-0.538l-0.9-7.3c-0.04-0.328-0.276-0.569-0.525-0.538l-0.006,0
		c-0.25,0.031-0.418,0.321-0.379,0.649l0.901,7.3c0.04,0.329-0.131,0.62-0.383,0.65c-0.251,0.031-0.487-0.209-0.527-0.538l-0.9-7.3
		c-0.041-0.328-0.276-0.569-0.526-0.538h-0.005c-0.25,0.031-0.419,0.322-0.379,0.65l0.9,7.301c0.04,0.328-0.13,0.619-0.382,0.649
		c-0.251,0.032-0.488-0.209-0.528-0.538l-0.9-7.3c-0.041-0.329-0.276-0.569-0.526-0.538c-0.236,0.029-0.398,0.304-0.36,0.613
		c0.228,1.848,0.941,7.63,0.971,7.875c0.297,2.408,1.074,3.639,2.069,4.137c0.804,0.403,1.365,1.389,1.417,2.482l0.859,17.857
		c0.034,0.689,0.289,1.347,0.703,1.81c0.415,0.467,0.951,0.694,1.474,0.631c0.525-0.065,0.988-0.418,1.277-0.968
		c0.289-0.553,0.377-1.25,0.242-1.93l-3.504-17.529c-0.214-1.074,0.093-2.167,0.773-2.753c0.844-0.725,1.298-2.108,1.001-4.516
		c-0.03-0.245-0.743-6.027-0.97-7.875C26.961,17.553,26.739,17.326,26.501,17.354z"/>
</g>
<path fill="#363736" d="M98.346,35.761c0,0,0.496-9.264-5.557-12.64c-6.052-3.376-13.834-0.824-15.317-0.248
	c-1.482,0.579-3.663,1.567-4.528,3.624c-0.864,2.058,0.741,5.065,3.293,4.695c2.552-0.371,4.568-2.924,8.234-2.677
	c3.666,0.247,4.776,1.812,4.941,4.817c0,0-6.876-0.123-10.746,1.07s-8.729,3.213-8.522,9.883c0.206,6.668,8.384,9.467,14.135,8.025
	c4.917-1.229,5.271-2.94,5.27-3.412c0.068,0.607,0.556,3.254,3.941,3.582c3.829,0.37,4.693-3.092,4.857-3.912
	C98.513,47.745,98.346,35.761,98.346,35.761z M83.976,46.135c-3.5,0.534-5.889-1.645-4.447-4.529
	c1.441-2.884,9.921-2.551,9.921-2.551C89.575,44.327,87.474,45.603,83.976,46.135z"/>
<path fill="#363736" d="M155.125,13.057c0,3.034-2.461,5.495-5.497,5.495s-5.495-2.461-5.495-5.495c0-3.038,2.459-5.497,5.495-5.497
	S155.125,10.02,155.125,13.057z"/>
<path fill="#363736" d="M154.568,26.706c0,0.251-0.018,0.499-0.053,0.741c-0.354,2.378-2.363,4.2-4.794,4.2
	c-2.678,0-4.85-2.212-4.85-4.94c0-0.25,0.021-0.495,0.053-0.733c0.014-0.083,0.025-0.166,0.043-0.25
	c0.446-2.257,2.406-3.959,4.754-3.959C152.397,21.764,154.568,23.977,154.568,26.706z"/>
<path fill="#363736" d="M154.568,47.579c0,2.729-2.171,4.939-4.847,4.939c-2.678,0-4.85-2.211-4.85-4.939s2.172-4.939,4.85-4.939
	C152.397,42.639,154.568,44.85,154.568,47.579z"/>
<polygon fill="#363736" points="144.872,26.335 144.872,47.579 147.096,48.631 154.568,47.579 154.568,26.706 "/>
<path fill="#363736" d="M161.92,50.235c0,0-4.072-3.342-0.367-6.179c0,0,2.154-1.417,4.379-0.308
	c2.227,1.115,4.818,3.277,8.213,1.424c0,0,1.73-1.051,0.804-2.965c0,0-0.804-1.361-5.001-1.916
	c-4.201-0.555-9.818-3.705-9.142-9.634c0.68-5.93,5.618-9.653,13.589-8.975c7.965,0.68,9.758,3.54,8.893,6.256
	c-0.863,2.718-3.398,3.335-7.535,0.99c-4.172-2.367-7.66,1.852-5.375,3.335c2.288,1.48,12.355,1.418,13.836,8.521
	c1.482,7.104-4.508,11.859-10.19,12.104C168.34,53.139,166.056,52.889,161.92,50.235z"/>
<path fill="#363736" d="M189.524,31.584c0,0-4.261-5.929,0.617-9.326c0,0,4.881-3.088,8.092,5.003
	c3.211,8.088,5.312,14.142,5.312,14.142l5.99-16.242c0,0,1.608-4.941,6.854-2.84c5.251,2.098-0.616,11.895-1.79,14.964
	c-1.171,3.068-8.522,20.731-8.522,20.731s-2.469,6.609-9.077,7.782c-6.61,1.174-8.956-1.544-8.709-4.388
	c0.247-2.837,1.851-3.395,4.261-3.579c2.41-0.187,4.078-0.245,5.99-6.113L189.524,31.584z"/>
<path fill="#363736" d="M238.745,21.394c-9.17,0-16.611,7.064-16.611,15.781c0,8.716,7.441,15.776,16.611,15.776
	c9.176,0,16.615-7.061,16.615-15.776C255.36,28.458,247.92,21.394,238.745,21.394z M238.678,44.924
	c-3.952,0-7.159-3.507-7.159-7.839c0-4.329,3.207-7.838,7.159-7.838c3.949,0,7.158,3.509,7.158,7.838
	C245.836,41.417,242.627,44.924,238.678,44.924z"/>
<rect x="134.04" y="33.29" fill="#D12B2C" stroke="#363736" stroke-miterlimit="10" width="0.162" height="0.081"/>
<path fill="#363736" d="M136.929,11.824c0,0,0.204-4.965-4.614-5.258c-4.817-0.292-5.144,4.482-5.142,5.925
	c0.001,1.44,0.047,13.008,0.047,13.008s-4.201-5.019-10.831-3.905c-6.627,1.116-10.99,5.483-12.22,13.802
	c-1.231,8.316,4.784,15.066,8.448,16.341c3.665,1.274,10.622,2.749,15.274-3.551c0,0,0.125,3.456,3.626,4.153
	c3.499,0.697,5.312-1.773,5.432-4.365C137.071,45.379,136.929,11.824,136.929,11.824z M120.639,45.179
	c-4,0.002-7.246-3.487-7.247-7.798c-0.003-4.309,3.239-7.801,7.239-7.804c4.005-0.002,7.252,3.487,7.254,7.796
	C127.887,41.684,124.645,45.177,120.639,45.179z"/>
</svg>
